<?xml version='1.0' encoding='UTF-8'?>
<svg x="0px" y="0px" viewBox="0 0 32 32" version="1.1" xmlns="http://www.w3.org/2000/svg" xmlns:xlink="http://www.w3.org/1999/xlink" xml:space="preserve" id="Layer_1" style="enable-background:new 0 0 32 32">
  <style type="text/css">
	.Red{fill:#D11C1C;}
	.Yellow{fill:#FFB115;}
	.Blue{fill:#1177D7;}
	.Green{fill:#039C23;}
	.Black{fill:#727272;}
	.White{fill:#FFFFFF;}
	.st0{opacity:0.5;}
	.st1{opacity:0.75;}
	.st2{opacity:0.35;}
	.st3{opacity:0.65;}
</style>
  <g id="ManhattanBar">
    <g class="st0">
      <path d="M14,10l-2,2H6l2-2H14z M16,6l-2,2h6l2-2H16z M24,2l-2,2h6l2-2H24z" class="Blue" />
    </g>
    <path d="M14,16h-2v-4l2-2V16z M22,6l-2,2v4h2V6z M30,2l-2,2v20l2-2V2z" class="Blue" />
    <g class="st1">
      <path d="M10,18v2H6v-8h6v4L10,18z M20,12V8h-6v8h4v-2L20,12z M22,4v8h4v12h2V4H22z" class="Blue" />
    </g>
    <g class="st1">
      <path d="M8,28H2v-6h6V28z M16,18h-6v10h6V18z M24,14h-6v14h6V14z" class="Yellow" />
    </g>
    <g class="st0">
      <path d="M10,20l-2,2H2l2-2H10z M12,16l-2,2h6l2-2H12z M20,12l-2,2h6l2-2H20z" class="Yellow" />
    </g>
    <path d="M10,26l-2,2v-6l2-2V26z M18,16l-2,2v10l2-2V16z M26,12l-2,2v14l2-2V12z" class="Yellow" />
  </g>
</svg>